<svg xmlns="http://www.w3.org/2000/svg" width="1600" height="1000" viewBox="0 0 1600 1000" role="img" aria-label="Canonical claim detail"><defs><linearGradient id="signal" x1="0" y1="0" x2="1" y2="1"><stop stop-color="#22D3EE"/><stop offset="1" stop-color="#4F7CFF"/></linearGradient><filter id="shadow"><feDropShadow dx="0" dy="12" stdDeviation="20" flood-color="#000" flood-opacity=".25"/></filter></defs><rect width="1600" height="1000" fill="#070A12"/><g transform="translate(64 42)"><path fill="url(#signal)" d="M22 0 7 5c-2 1-3 2-3 4v12c0 12 6 22 18 27V29l-8-8 8-8V0Zm4 0 15 5c2 1 3 2 3 4v12c0 12-6 22-18 27V29l8-8-8-8V0Z"/><path fill="#22D3EE" d="m24 17 4 4-4 4-4-4 4-4Z"/><text x="54" y="31" font-family="Geist, Inter, Arial, sans-serif" font-size="18" font-weight="800" fill="#F7F9FC" text-anchor="start">TruthBounty</text></g><text x="1034" y="70" font-family="Geist, Inter, Arial, sans-serif" font-size="12" font-weight="700" fill="#9AA7BD" text-anchor="start">Explore</text><text x="1114" y="70" font-family="Geist, Inter, Arial, sans-serif" font-size="12" font-weight="650" fill="#9AA7BD" text-anchor="start">Disputes</text><text x="1204" y="70" font-family="Geist, Inter, Arial, sans-serif" font-size="12" font-weight="650" fill="#9AA7BD" text-anchor="start">Treasury</text><text x="1294" y="70" font-family="Geist, Inter, Arial, sans-serif" font-size="12" font-weight="650" fill="#9AA7BD" text-anchor="start">Docs</text><rect x="1370" y="43" width="150" height="44" rx="10" fill="#151C2B" stroke="#273149" stroke-width="1"/><text x="1445" y="71" font-family="Geist, Inter, Arial, sans-serif" font-size="13" font-weight="750" fill="#F7F9FC" text-anchor="middle">Connect wallet</text><line x1="48" y1="102" x2="1552" y2="102" stroke="#273149" stroke-width="1"/><text x="64" y="150" font-family="Geist, Inter, Arial, sans-serif" font-size="12" font-weight="650" fill="#9AA7BD" text-anchor="start">← Back to claims</text><rect x="64" y="184" width="88" height="28" rx="14" fill="#22D3EE1F" stroke="#22D3EE55" stroke-width="1"/><text x="108" y="203" font-family="Geist, Inter, Arial, sans-serif" font-size="11" font-weight="700" fill="#22D3EE" text-anchor="middle">TB-2072</text><rect x="164" y="184" width="108" height="28" rx="14" fill="#74A7FF1F" stroke="#74A7FF55" stroke-width="1"/><text x="218" y="203" font-family="Geist, Inter, Arial, sans-serif" font-size="11" font-weight="700" fill="#74A7FF" text-anchor="middle">Verification</text><rect x="284" y="184" width="120" height="28" rx="14" fill="#41D39A1F" stroke="#41D39A55" stroke-width="1"/><text x="344" y="203" font-family="Geist, Inter, Arial, sans-serif" font-size="11" font-weight="700" fill="#41D39A" text-anchor="middle">Fresh 18s ago</text><text x="64" y="252" font-family="Geist, Inter, Arial, sans-serif" font-size="32" font-weight="800" fill="#F7F9FC" text-anchor="start">Regional air-quality monitors recorded a sustained</text><text x="64" y="294" font-family="Geist, Inter, Arial, sans-serif" font-size="32" font-weight="800" fill="#F7F9FC" text-anchor="start">19% improvement during the reporting period.</text><text x="64" y="356" font-family="Geist, Inter, Arial, sans-serif" font-size="11" font-weight="550" fill="#9AA7BD" text-anchor="start">Submitted by 0x71…c2 · Optimism Sepolia · release TB-V2</text><rect x="64" y="402" width="992" height="494" rx="16" fill="#101522" stroke="#273149" stroke-width="1"/><text x="90" y="440" font-family="Geist, Inter, Arial, sans-serif" font-size="17" font-weight="780" fill="#F7F9FC" text-anchor="start">Evidence record</text><text x="90" y="468" font-family="Geist, Inter, Arial, sans-serif" font-size="11" font-weight="500" fill="#9AA7BD" text-anchor="start">3 public artifacts · integrity checked</text><rect x="90" y="500" width="940" height="88" rx="12" fill="#0C111C" stroke="#273149" stroke-width="1"/><rect x="108" y="524" width="38" height="38" rx="11" fill="#FF6B7A16" stroke="#FF6B7A44" stroke-width="1"/><text x="127" y="549" font-family="Geist, Inter, Arial, sans-serif" font-size="11" font-weight="800" fill="#FF6B7A" text-anchor="middle">PDF</text><text x="164" y="531" font-family="Geist, Inter, Arial, sans-serif" font-size="13" font-weight="700" fill="#F7F9FC" text-anchor="start">Municipal monitoring report</text><text x="164" y="555" font-family="Geist Mono, monospace" font-size="10" font-weight="500" fill="#9AA7BD" text-anchor="start">Primary source · SHA-256 a84f…91c2</text><rect x="836" y="529" width="170" height="28" rx="14" fill="#41D39A1F" stroke="#41D39A55" stroke-width="1"/><text x="921" y="548" font-family="Geist, Inter, Arial, sans-serif" font-size="11" font-weight="700" fill="#41D39A" text-anchor="middle">Publisher and date verified</text><rect x="90" y="606" width="940" height="88" rx="12" fill="#0C111C" stroke="#273149" stroke-width="1"/><rect x="108" y="630" width="38" height="38" rx="11" fill="#22D3EE16" stroke="#22D3EE44" stroke-width="1"/><text x="127" y="655" font-family="Geist, Inter, Arial, sans-serif" font-size="11" font-weight="800" fill="#22D3EE" text-anchor="middle">WEB</text><text x="164" y="637" font-family="Geist, Inter, Arial, sans-serif" font-size="13" font-weight="700" fill="#F7F9FC" text-anchor="start">Open sensor dataset</text><text x="164" y="661" font-family="Geist Mono, monospace" font-size="10" font-weight="500" fill="#9AA7BD" text-anchor="start">Supporting source · IPFS bafy…82aa</text><rect x="836" y="635" width="170" height="28" rx="14" fill="#41D39A1F" stroke="#41D39A55" stroke-width="1"/><text x="921" y="654" font-family="Geist, Inter, Arial, sans-serif" font-size="11" font-weight="700" fill="#41D39A" text-anchor="middle">Retrieved 5 Oct 2026</text><rect x="90" y="712" width="940" height="88" rx="12" fill="#0C111C" stroke="#273149" stroke-width="1"/><rect x="108" y="736" width="38" height="38" rx="11" fill="#74A7FF16" stroke="#74A7FF44" stroke-width="1"/><text x="127" y="761" font-family="Geist, Inter, Arial, sans-serif" font-size="11" font-weight="800" fill="#74A7FF" text-anchor="middle">IMG</text><text x="164" y="743" font-family="Geist, Inter, Arial, sans-serif" font-size="13" font-weight="700" fill="#F7F9FC" text-anchor="start">Signed calibration record</text><text x="164" y="767" font-family="Geist Mono, monospace" font-size="10" font-weight="500" fill="#9AA7BD" text-anchor="start">Supporting source · SHA-256 2f19…0ee4</text><rect x="836" y="741" width="170" height="28" rx="14" fill="#41D39A1F" stroke="#41D39A55" stroke-width="1"/><text x="921" y="760" font-family="Geist, Inter, Arial, sans-serif" font-size="11" font-weight="700" fill="#41D39A" text-anchor="middle">Metadata available</text><rect x="1082" y="184" width="454" height="276" rx="16" fill="#101522" stroke="#273149" stroke-width="1"/><text x="1108" y="222" font-family="Geist, Inter, Arial, sans-serif" font-size="10" font-weight="800" fill="#9AA7BD" text-anchor="start">Canonical phase</text><text x="1108" y="258" font-family="Geist, Inter, Arial, sans-serif" font-size="23" font-weight="800" fill="#F7F9FC" text-anchor="start">Verification open</text><text x="1108" y="288" font-family="Geist, Inter, Arial, sans-serif" font-size="13" font-weight="700" fill="#F4B860" text-anchor="start">Closes in 3h 24m</text><line x1="1108" y1="314" x2="1510" y2="314" stroke="#273149" stroke-width="1"/><text x="1108" y="344" font-family="Geist, Inter, Arial, sans-serif" font-size="10" font-weight="700" fill="#9AA7BD" text-anchor="start">Next action</text><text x="1108" y="374" font-family="Geist, Inter, Arial, sans-serif" font-size="12" font-weight="650" fill="#F7F9FC" text-anchor="start">Verifier eligibility required</text><rect x="1108" y="394" width="178" height="44" rx="10" fill="#4F7CFF" stroke="#4F7CFF" stroke-width="1"/><text x="1197" y="422" font-family="Geist, Inter, Arial, sans-serif" font-size="13" font-weight="750" fill="#F7F9FC" text-anchor="middle">Review eligibility</text><rect x="1082" y="484" width="454" height="190" rx="16" fill="#101522" stroke="#273149" stroke-width="1"/><text x="1108" y="520" font-family="Geist, Inter, Arial, sans-serif" font-size="14" font-weight="750" fill="#F7F9FC" text-anchor="start">Outcome boundary</text><text x="1108" y="550" font-family="Geist, Inter, Arial, sans-serif" font-size="11" font-weight="500" fill="#9AA7BD" text-anchor="start">No final outcome exists in this phase.</text><text x="1108" y="576" font-family="Geist, Inter, Arial, sans-serif" font-size="11" font-weight="500" fill="#9AA7BD" text-anchor="start">Indexer projection: current at block 14,282,901.</text><rect x="1108" y="622" width="92" height="28" rx="14" fill="#F4B8601F" stroke="#F4B86055" stroke-width="1"/><text x="1154" y="641" font-family="Geist, Inter, Arial, sans-serif" font-size="11" font-weight="700" fill="#F4B860" text-anchor="middle">Not final</text><rect x="1082" y="698" width="454" height="198" rx="16" fill="#101522" stroke="#273149" stroke-width="1"/><text x="1108" y="734" font-family="Geist, Inter, Arial, sans-serif" font-size="14" font-weight="750" fill="#F7F9FC" text-anchor="start">Timeline</text><circle cx="1120" cy="770" r="10" fill="#41D39A20" stroke="#41D39A"/><path d="m1116 770 3 3 6-7" fill="none" stroke="#41D39A" stroke-width="2" stroke-linecap="round"/><text x="1144" y="775" font-family="Geist, Inter, Arial, sans-serif" font-size="11" font-weight="650" fill="#F7F9FC" text-anchor="start">Claim submitted · finalized</text><circle cx="1120" cy="812" r="10" fill="#74A7FF20" stroke="#74A7FF"/><path d="m1116 812 3 3 6-7" fill="none" stroke="#74A7FF" stroke-width="2" stroke-linecap="round"/><text x="1144" y="817" font-family="Geist, Inter, Arial, sans-serif" font-size="11" font-weight="650" fill="#F7F9FC" text-anchor="start">Verification · active</text><circle cx="1120" cy="854" r="10" fill="#9AA7BD20" stroke="#9AA7BD"/><path d="m1116 854 3 3 6-7" fill="none" stroke="#9AA7BD" stroke-width="2" stroke-linecap="round"/><text x="1144" y="859" font-family="Geist, Inter, Arial, sans-serif" font-size="11" font-weight="550" fill="#9AA7BD" text-anchor="start">Resolution · pending</text></svg>