<svg xmlns="http://www.w3.org/2000/svg" width="1600" height="1000" viewBox="0 0 1600 1000" role="img" aria-label="Owned claims"><defs><linearGradient id="signal" x1="0" y1="0" x2="1" y2="1"><stop stop-color="#22D3EE"/><stop offset="1" stop-color="#4F7CFF"/></linearGradient><filter id="shadow"><feDropShadow dx="0" dy="12" stdDeviation="20" flood-color="#000" flood-opacity=".25"/></filter></defs><rect width="1600" height="1000" fill="#070A12"/><rect x="0" y="0" width="272" height="1000" fill="#0C111C"/><g transform="translate(28 34)"><path fill="url(#signal)" d="M22 0 7 5c-2 1-3 2-3 4v12c0 12 6 22 18 27V29l-8-8 8-8V0Zm4 0 15 5c2 1 3 2 3 4v12c0 12-6 22-18 27V29l8-8-8-8V0Z"/><path fill="#22D3EE" d="m24 17 4 4-4 4-4-4 4-4Z"/><text x="54" y="31" font-family="Geist, Inter, Arial, sans-serif" font-size="18" font-weight="800" fill="#F7F9FC" text-anchor="start">TruthBounty</text></g><text x="30" y="154" font-family="Geist, Inter, Arial, sans-serif" font-size="10" font-weight="800" fill="#9AA7BD" text-anchor="start">CLAIMANT</text><text x="54" y="222" font-family="Geist, Inter, Arial, sans-serif" font-size="12" font-weight="550" fill="#9AA7BD" text-anchor="start">Overview</text><rect x="30" y="248" width="212" height="42" rx="10" fill="#4F7CFF18" stroke="#4F7CFF44" stroke-width="1"/><text x="54" y="274" font-family="Geist, Inter, Arial, sans-serif" font-size="12" font-weight="750" fill="#22D3EE" text-anchor="start">My claims</text><text x="54" y="326" font-family="Geist, Inter, Arial, sans-serif" font-size="12" font-weight="550" fill="#9AA7BD" text-anchor="start">Rewards</text><text x="54" y="378" font-family="Geist, Inter, Arial, sans-serif" font-size="12" font-weight="550" fill="#9AA7BD" text-anchor="start">Transactions</text><text x="54" y="430" font-family="Geist, Inter, Arial, sans-serif" font-size="12" font-weight="550" fill="#9AA7BD" text-anchor="start">Settings</text><line x1="30" y1="520" x2="242" y2="520" stroke="#273149" stroke-width="1"/><text x="54" y="560" font-family="Geist, Inter, Arial, sans-serif" font-size="12" font-weight="550" fill="#9AA7BD" text-anchor="start">Explore claims</text><text x="54" y="612" font-family="Geist, Inter, Arial, sans-serif" font-size="12" font-weight="550" fill="#9AA7BD" text-anchor="start">Documentation</text><rect x="30" y="904" width="154" height="28" rx="14" fill="#74A7FF1F" stroke="#74A7FF55" stroke-width="1"/><text x="107" y="923" font-family="Geist, Inter, Arial, sans-serif" font-size="11" font-weight="700" fill="#74A7FF" text-anchor="middle">Optimism Sepolia</text><text x="30" y="956" font-family="Geist, Inter, Arial, sans-serif" font-size="10" font-weight="500" fill="#9AA7BD" text-anchor="start">Release TB-V2 · public testnet</text><rect x="272" y="0" width="1328" height="88" fill="#101522"/><text x="312" y="54" font-family="Geist, Inter, Arial, sans-serif" font-size="16" font-weight="750" fill="#F7F9FC" text-anchor="start">My claims</text><rect x="1256" y="30" width="138" height="28" rx="14" fill="#22D3EE1F" stroke="#22D3EE55" stroke-width="1"/><text x="1325" y="49" font-family="Geist, Inter, Arial, sans-serif" font-size="11" font-weight="700" fill="#22D3EE" text-anchor="middle">Claimant context</text><rect x="1406" y="30" width="104" height="28" rx="14" fill="#41D39A1F" stroke="#41D39A55" stroke-width="1"/><text x="1458" y="49" font-family="Geist, Inter, Arial, sans-serif" font-size="11" font-weight="700" fill="#41D39A" text-anchor="middle">0x71…c2</text><text x="312" y="136" font-family="Geist, Inter, Arial, sans-serif" font-size="12" font-weight="750" fill="#22D3EE" text-anchor="start">Claimant workspace</text><text x="312" y="182" font-family="Geist, Inter, Arial, sans-serif" font-size="34" font-weight="820" fill="#F7F9FC" text-anchor="start">My claims</text><text x="312" y="214" font-family="Geist, Inter, Arial, sans-serif" font-size="13" font-weight="500" fill="#9AA7BD" text-anchor="start">Local drafts remain visually separate from canonical claims.</text><rect x="1380" y="136" width="152" height="44" rx="10" fill="#4F7CFF" stroke="#4F7CFF" stroke-width="1"/><text x="1456" y="164" font-family="Geist, Inter, Arial, sans-serif" font-size="13" font-weight="750" fill="#F7F9FC" text-anchor="middle">Create claim</text><rect x="312" y="260" width="76" height="28" rx="14" fill="#4F7CFF1F" stroke="#4F7CFF55" stroke-width="1"/><text x="350" y="279" font-family="Geist, Inter, Arial, sans-serif" font-size="11" font-weight="700" fill="#4F7CFF" text-anchor="middle">All 13</text><rect x="400" y="260" width="118" height="28" rx="14" fill="#F4B8601F" stroke="#F4B86055" stroke-width="1"/><text x="459" y="279" font-family="Geist, Inter, Arial, sans-serif" font-size="11" font-weight="700" fill="#F4B860" text-anchor="middle">Needs action 1</text><rect x="530" y="260" width="86" height="28" rx="14" fill="#74A7FF1F" stroke="#74A7FF55" stroke-width="1"/><text x="573" y="279" font-family="Geist, Inter, Arial, sans-serif" font-size="11" font-weight="700" fill="#74A7FF" text-anchor="middle">Active 3</text><rect x="628" y="260" width="102" height="28" rx="14" fill="#41D39A1F" stroke="#41D39A55" stroke-width="1"/><text x="679" y="279" font-family="Geist, Inter, Arial, sans-serif" font-size="11" font-weight="700" fill="#41D39A" text-anchor="middle">Finalized 7</text><rect x="742" y="260" width="112" height="28" rx="14" fill="#9AA7BD1F" stroke="#9AA7BD55" stroke-width="1"/><text x="798" y="279" font-family="Geist, Inter, Arial, sans-serif" font-size="11" font-weight="700" fill="#9AA7BD" text-anchor="middle">Local drafts 2</text><rect x="312" y="312" width="1224" height="584" rx="18" fill="#101522" stroke="#273149" stroke-width="1"/><text x="338" y="350" font-family="Geist, Inter, Arial, sans-serif" font-size="10" font-weight="800" fill="#9AA7BD" text-anchor="start">LOCAL DRAFTS</text><rect x="338" y="372" width="1172" height="82" rx="12" fill="#0C111C" stroke="#273149" stroke-width="1"/><rect x="354" y="387" width="88" height="28" rx="14" fill="#22D3EE1F" stroke="#22D3EE55" stroke-width="1"/><text x="398" y="406" font-family="Geist, Inter, Arial, sans-serif" font-size="11" font-weight="700" fill="#22D3EE" text-anchor="middle">Draft</text><text x="458" y="403" font-family="Geist, Inter, Arial, sans-serif" font-size="13" font-weight="700" fill="#F7F9FC" text-anchor="start">Procurement notice timeline</text><text x="458" y="427" font-family="Geist, Inter, Arial, sans-serif" font-size="10" font-weight="500" fill="#9AA7BD" text-anchor="start">Saved on this device · never submitted</text><rect x="1384" y="399" width="104" height="28" rx="14" fill="#9AA7BD1F" stroke="#9AA7BD55" stroke-width="1"/><text x="1436" y="418" font-family="Geist, Inter, Arial, sans-serif" font-size="11" font-weight="700" fill="#9AA7BD" text-anchor="middle">Continue</text><text x="1492" y="423" font-family="Geist, Inter, Arial, sans-serif" font-size="20" font-weight="500" fill="#9AA7BD" text-anchor="end">›</text><rect x="338" y="470" width="1172" height="82" rx="12" fill="#0C111C" stroke="#273149" stroke-width="1"/><rect x="354" y="485" width="88" height="28" rx="14" fill="#22D3EE1F" stroke="#22D3EE55" stroke-width="1"/><text x="398" y="504" font-family="Geist, Inter, Arial, sans-serif" font-size="11" font-weight="700" fill="#22D3EE" text-anchor="middle">Draft</text><text x="458" y="501" font-family="Geist, Inter, Arial, sans-serif" font-size="13" font-weight="700" fill="#F7F9FC" text-anchor="start">Regional budget statement</text><text x="458" y="525" font-family="Geist, Inter, Arial, sans-serif" font-size="10" font-weight="500" fill="#9AA7BD" text-anchor="start">Saved 2 days ago · no canonical ID</text><rect x="1384" y="497" width="104" height="28" rx="14" fill="#9AA7BD1F" stroke="#9AA7BD55" stroke-width="1"/><text x="1436" y="516" font-family="Geist, Inter, Arial, sans-serif" font-size="11" font-weight="700" fill="#9AA7BD" text-anchor="middle">Continue</text><text x="1492" y="521" font-family="Geist, Inter, Arial, sans-serif" font-size="20" font-weight="500" fill="#9AA7BD" text-anchor="end">›</text><text x="338" y="590" font-family="Geist, Inter, Arial, sans-serif" font-size="10" font-weight="800" fill="#9AA7BD" text-anchor="start">CANONICAL CLAIMS</text><rect x="338" y="612" width="1172" height="82" rx="12" fill="#0C111C" stroke="#273149" stroke-width="1"/><rect x="354" y="627" width="88" height="28" rx="14" fill="#22D3EE1F" stroke="#22D3EE55" stroke-width="1"/><text x="398" y="646" font-family="Geist, Inter, Arial, sans-serif" font-size="11" font-weight="700" fill="#22D3EE" text-anchor="middle">Climate</text><text x="458" y="643" font-family="Geist, Inter, Arial, sans-serif" font-size="13" font-weight="700" fill="#F7F9FC" text-anchor="start">City air-quality monitors recorded a 19% improvement</text><text x="458" y="667" font-family="Geist, Inter, Arial, sans-serif" font-size="10" font-weight="500" fill="#9AA7BD" text-anchor="start">TB-2048 · Evidence metadata due in 18h</text><rect x="1384" y="639" width="104" height="28" rx="14" fill="#F4B8601F" stroke="#F4B86055" stroke-width="1"/><text x="1436" y="658" font-family="Geist, Inter, Arial, sans-serif" font-size="11" font-weight="700" fill="#F4B860" text-anchor="middle">Needs action</text><text x="1492" y="663" font-family="Geist, Inter, Arial, sans-serif" font-size="20" font-weight="500" fill="#9AA7BD" text-anchor="end">›</text><rect x="338" y="710" width="1172" height="82" rx="12" fill="#0C111C" stroke="#273149" stroke-width="1"/><rect x="354" y="725" width="88" height="28" rx="14" fill="#22D3EE1F" stroke="#22D3EE55" stroke-width="1"/><text x="398" y="744" font-family="Geist, Inter, Arial, sans-serif" font-size="11" font-weight="700" fill="#22D3EE" text-anchor="middle">Public data</text><text x="458" y="741" font-family="Geist, Inter, Arial, sans-serif" font-size="13" font-weight="700" fill="#F7F9FC" text-anchor="start">Procurement totals match the signed publication</text><text x="458" y="765" font-family="Geist, Inter, Arial, sans-serif" font-size="10" font-weight="500" fill="#9AA7BD" text-anchor="start">TB-2031 · Dispute window open</text><rect x="1384" y="737" width="104" height="28" rx="14" fill="#F4B8601F" stroke="#F4B86055" stroke-width="1"/><text x="1436" y="756" font-family="Geist, Inter, Arial, sans-serif" font-size="11" font-weight="700" fill="#F4B860" text-anchor="middle">Provisional</text><text x="1492" y="761" font-family="Geist, Inter, Arial, sans-serif" font-size="20" font-weight="500" fill="#9AA7BD" text-anchor="end">›</text><rect x="338" y="808" width="1172" height="82" rx="12" fill="#0C111C" stroke="#273149" stroke-width="1"/><rect x="354" y="823" width="88" height="28" rx="14" fill="#22D3EE1F" stroke="#22D3EE55" stroke-width="1"/><text x="398" y="842" font-family="Geist, Inter, Arial, sans-serif" font-size="11" font-weight="700" fill="#22D3EE" text-anchor="middle">Education</text><text x="458" y="839" font-family="Geist, Inter, Arial, sans-serif" font-size="13" font-weight="700" fill="#F7F9FC" text-anchor="start">Allocation increased in the approved annual budget</text><text x="458" y="863" font-family="Geist, Inter, Arial, sans-serif" font-size="10" font-weight="500" fill="#9AA7BD" text-anchor="start">TB-1994 · Finalized at block 14,281,443</text><rect x="1384" y="835" width="104" height="28" rx="14" fill="#41D39A1F" stroke="#41D39A55" stroke-width="1"/><text x="1436" y="854" font-family="Geist, Inter, Arial, sans-serif" font-size="11" font-weight="700" fill="#41D39A" text-anchor="middle">Finalized</text><text x="1492" y="859" font-family="Geist, Inter, Arial, sans-serif" font-size="20" font-weight="500" fill="#9AA7BD" text-anchor="end">›</text></svg>