<svg xmlns="http://www.w3.org/2000/svg" width="1600" height="1000" viewBox="0 0 1600 1000" role="img" aria-label="Design tokens">
<defs><linearGradient id="signal" x1="0" y1="0" x2="1" y2="1"><stop stop-color="#22D3EE"/><stop offset="1" stop-color="#4F7CFF"/></linearGradient><filter id="shadow"><feDropShadow dx="0" dy="12" stdDeviation="18" flood-color="#000" flood-opacity=".22"/></filter></defs>
<rect width="1600" height="1000" fill="#070A12"/><circle cx="150" cy="-40" r="280" fill="#22D3EE" opacity=".035"/><circle cx="1550" cy="980" r="340" fill="#4F7CFF" opacity=".045"/><text x="64" y="54" font-family="Geist, Inter, Arial, sans-serif" font-size="12" font-weight="800" fill="#22D3EE" text-anchor="start">FOUNDATION 01</text><text x="64" y="96" font-family="Geist, Inter, Arial, sans-serif" font-size="34" font-weight="800" fill="#F7F9FC" text-anchor="start">Design tokens</text><text x="64" y="126" font-family="Geist, Inter, Arial, sans-serif" font-size="15" font-weight="450" fill="#9AA7BD" text-anchor="start">A dark-first system with semantic colour separation and accessible interaction dimensions.</text><g transform="translate(1422 46)"><path fill="url(#signal)" d="M24 2 8 7c-2 1-3 2-3 4v13c0 13 6 23 19 29V32l-9-9 9-9V2Zm4 0 16 5c2 1 3 2 3 4v13c0 13-6 23-19 29V32l9-9-9-9V2Z"/><path fill="#22D3EE" d="m26 19 4 4-4 4-4-4 4-4Z"/><text x="55" y="34" font-family="Geist, Inter, Arial, sans-serif" font-size="18" font-weight="800" fill="#F7F9FC" text-anchor="start">TruthBounty</text></g><text x="64" y="176" font-family="Geist, Inter, Arial, sans-serif" font-size="12" font-weight="800" fill="#9AA7BD" text-anchor="start">COLOUR TOKENS</text><rect x="64" y="198" width="270" height="94" rx="14" fill="#101522" stroke="#273149" stroke-width="1"/><rect x="78" y="212" width="66" height="66" rx="12" fill="#22D3EE"/><text x="158" y="236" font-family="Geist, Inter, Arial, sans-serif" font-size="14" font-weight="700" fill="#F7F9FC" text-anchor="start">Signal Cyan</text><text x="158" y="258" font-family="Geist Mono, monospace" font-size="12" font-weight="600" fill="#9AA7BD" text-anchor="start">#22D3EE</text><text x="158" y="277" font-family="Geist, Inter, Arial, sans-serif" font-size="10" font-weight="500" fill="#9AA7BD" text-anchor="start">Evidence · focus</text><rect x="359" y="198" width="270" height="94" rx="14" fill="#101522" stroke="#273149" stroke-width="1"/><rect x="373" y="212" width="66" height="66" rx="12" fill="#4F7CFF"/><text x="453" y="236" font-family="Geist, Inter, Arial, sans-serif" font-size="14" font-weight="700" fill="#F7F9FC" text-anchor="start">Proof Blue</text><text x="453" y="258" font-family="Geist Mono, monospace" font-size="12" font-weight="600" fill="#9AA7BD" text-anchor="start">#4F7CFF</text><text x="453" y="277" font-family="Geist, Inter, Arial, sans-serif" font-size="10" font-weight="500" fill="#9AA7BD" text-anchor="start">Action · resolved</text><rect x="654" y="198" width="270" height="94" rx="14" fill="#101522" stroke="#273149" stroke-width="1"/><rect x="668" y="212" width="66" height="66" rx="12" fill="#070A12"/><text x="748" y="236" font-family="Geist, Inter, Arial, sans-serif" font-size="14" font-weight="700" fill="#F7F9FC" text-anchor="start">Ink Navy</text><text x="748" y="258" font-family="Geist Mono, monospace" font-size="12" font-weight="600" fill="#9AA7BD" text-anchor="start">#070A12</text><text x="748" y="277" font-family="Geist, Inter, Arial, sans-serif" font-size="10" font-weight="500" fill="#9AA7BD" text-anchor="start">Dark canvas</text><rect x="949" y="198" width="270" height="94" rx="14" fill="#101522" stroke="#273149" stroke-width="1"/><rect x="963" y="212" width="66" height="66" rx="12" fill="#101522"/><text x="1043" y="236" font-family="Geist, Inter, Arial, sans-serif" font-size="14" font-weight="700" fill="#F7F9FC" text-anchor="start">Deep Slate</text><text x="1043" y="258" font-family="Geist Mono, monospace" font-size="12" font-weight="600" fill="#9AA7BD" text-anchor="start">#101522</text><text x="1043" y="277" font-family="Geist, Inter, Arial, sans-serif" font-size="10" font-weight="500" fill="#9AA7BD" text-anchor="start">Surface</text><rect x="1244" y="198" width="270" height="94" rx="14" fill="#101522" stroke="#273149" stroke-width="1"/><rect x="1258" y="212" width="66" height="66" rx="12" fill="#F7F9FC"/><text x="1338" y="236" font-family="Geist, Inter, Arial, sans-serif" font-size="14" font-weight="700" fill="#F7F9FC" text-anchor="start">Frost White</text><text x="1338" y="258" font-family="Geist Mono, monospace" font-size="12" font-weight="600" fill="#9AA7BD" text-anchor="start">#F7F9FC</text><text x="1338" y="277" font-family="Geist, Inter, Arial, sans-serif" font-size="10" font-weight="500" fill="#9AA7BD" text-anchor="start">Text · light canvas</text><rect x="64" y="320" width="270" height="94" rx="14" fill="#101522" stroke="#273149" stroke-width="1"/><rect x="78" y="334" width="66" height="66" rx="12" fill="#F5B942"/><text x="158" y="358" font-family="Geist, Inter, Arial, sans-serif" font-size="14" font-weight="700" fill="#F7F9FC" text-anchor="start">Bounty Gold</text><text x="158" y="380" font-family="Geist Mono, monospace" font-size="12" font-weight="600" fill="#9AA7BD" text-anchor="start">#F5B942</text><text x="158" y="399" font-family="Geist, Inter, Arial, sans-serif" font-size="10" font-weight="500" fill="#9AA7BD" text-anchor="start">Rewards only</text><rect x="359" y="320" width="270" height="94" rx="14" fill="#101522" stroke="#273149" stroke-width="1"/><rect x="373" y="334" width="66" height="66" rx="12" fill="#41D39A"/><text x="453" y="358" font-family="Geist, Inter, Arial, sans-serif" font-size="14" font-weight="700" fill="#F7F9FC" text-anchor="start">Finalized</text><text x="453" y="380" font-family="Geist Mono, monospace" font-size="12" font-weight="600" fill="#9AA7BD" text-anchor="start">#41D39A</text><text x="453" y="399" font-family="Geist, Inter, Arial, sans-serif" font-size="10" font-weight="500" fill="#9AA7BD" text-anchor="start">Canonical success</text><rect x="654" y="320" width="270" height="94" rx="14" fill="#101522" stroke="#273149" stroke-width="1"/><rect x="668" y="334" width="66" height="66" rx="12" fill="#F4B860"/><text x="748" y="358" font-family="Geist, Inter, Arial, sans-serif" font-size="14" font-weight="700" fill="#F7F9FC" text-anchor="start">Attention</text><text x="748" y="380" font-family="Geist Mono, monospace" font-size="12" font-weight="600" fill="#9AA7BD" text-anchor="start">#F4B860</text><text x="748" y="399" font-family="Geist, Inter, Arial, sans-serif" font-size="10" font-weight="500" fill="#9AA7BD" text-anchor="start">Pending · lag</text><rect x="949" y="320" width="270" height="94" rx="14" fill="#101522" stroke="#273149" stroke-width="1"/><rect x="963" y="334" width="66" height="66" rx="12" fill="#FF6B7A"/><text x="1043" y="358" font-family="Geist, Inter, Arial, sans-serif" font-size="14" font-weight="700" fill="#F7F9FC" text-anchor="start">Failure</text><text x="1043" y="380" font-family="Geist Mono, monospace" font-size="12" font-weight="600" fill="#9AA7BD" text-anchor="start">#FF6B7A</text><text x="1043" y="399" font-family="Geist, Inter, Arial, sans-serif" font-size="10" font-weight="500" fill="#9AA7BD" text-anchor="start">Failed · destructive</text><text x="64" y="466" font-family="Geist, Inter, Arial, sans-serif" font-size="12" font-weight="800" fill="#9AA7BD" text-anchor="start">SPACING · SIZE · SHAPE</text><text x="64" y="500" font-family="Geist, Inter, Arial, sans-serif" font-size="11" font-weight="650" fill="#9AA7BD" text-anchor="start">4px</text><rect x="64" y="516" width="4.4" height="18" rx="4" fill="#22D3EE" opacity=".8"/><text x="182" y="500" font-family="Geist, Inter, Arial, sans-serif" font-size="11" font-weight="650" fill="#9AA7BD" text-anchor="start">8px</text><rect x="182" y="516" width="8.8" height="18" rx="4" fill="#22D3EE" opacity=".8"/><text x="300" y="500" font-family="Geist, Inter, Arial, sans-serif" font-size="11" font-weight="650" fill="#9AA7BD" text-anchor="start">12px</text><rect x="300" y="516" width="13.200000000000001" height="18" rx="4" fill="#22D3EE" opacity=".8"/><text x="418" y="500" font-family="Geist, Inter, Arial, sans-serif" font-size="11" font-weight="650" fill="#9AA7BD" text-anchor="start">16px</text><rect x="418" y="516" width="17.6" height="18" rx="4" fill="#22D3EE" opacity=".8"/><text x="536" y="500" font-family="Geist, Inter, Arial, sans-serif" font-size="11" font-weight="650" fill="#9AA7BD" text-anchor="start">24px</text><rect x="536" y="516" width="26.400000000000002" height="18" rx="4" fill="#22D3EE" opacity=".8"/><text x="654" y="500" font-family="Geist, Inter, Arial, sans-serif" font-size="11" font-weight="650" fill="#9AA7BD" text-anchor="start">32px</text><rect x="654" y="516" width="35.2" height="18" rx="4" fill="#22D3EE" opacity=".8"/><text x="772" y="500" font-family="Geist, Inter, Arial, sans-serif" font-size="11" font-weight="650" fill="#9AA7BD" text-anchor="start">48px</text><rect x="772" y="516" width="52.800000000000004" height="18" rx="4" fill="#22D3EE" opacity=".8"/><text x="890" y="500" font-family="Geist, Inter, Arial, sans-serif" font-size="11" font-weight="650" fill="#9AA7BD" text-anchor="start">64px</text><rect x="890" y="516" width="70.4" height="18" rx="4" fill="#22D3EE" opacity=".8"/><rect x="64" y="568" width="700" height="168" rx="16" fill="#101522" stroke="#273149" stroke-width="1"/><text x="88" y="602" font-family="Geist, Inter, Arial, sans-serif" font-size="14" font-weight="700" fill="#F7F9FC" text-anchor="start">Control heights</text><rect x="88" y="624" width="128" height="44" rx="10" fill="#151C2B" stroke="#273149" stroke-width="1"/><text x="152" y="652" font-family="Geist, Inter, Arial, sans-serif" font-size="13" font-weight="700" fill="#F7F9FC" text-anchor="middle">Compact · 36</text><rect x="232" y="620" width="132" height="44" rx="10" fill="#151C2B" stroke="#273149" stroke-width="1"/><text x="298" y="648" font-family="Geist, Inter, Arial, sans-serif" font-size="13" font-weight="700" fill="#F7F9FC" text-anchor="middle">Default · 44</text><rect x="380" y="616" width="128" height="44" rx="10" fill="#151C2B" stroke="#273149" stroke-width="1"/><text x="444" y="644" font-family="Geist, Inter, Arial, sans-serif" font-size="13" font-weight="700" fill="#F7F9FC" text-anchor="middle">Large · 52</text><text x="540" y="646" font-family="Geist, Inter, Arial, sans-serif" font-size="12" font-weight="600" fill="#9AA7BD" text-anchor="start">44 px minimum touch target</text><rect x="788" y="568" width="748" height="168" rx="16" fill="#101522" stroke="#273149" stroke-width="1"/><text x="812" y="602" font-family="Geist, Inter, Arial, sans-serif" font-size="14" font-weight="700" fill="#F7F9FC" text-anchor="start">Radius · border · elevation</text><rect x="812" y="624" width="82" height="58" rx="8" fill="#151C2B" stroke="#273149" stroke-width="1"/><text x="853" y="706" font-family="Geist, Inter, Arial, sans-serif" font-size="11" font-weight="600" fill="#9AA7BD" text-anchor="middle">8px</text><rect x="924" y="624" width="82" height="58" rx="12" fill="#151C2B" stroke="#273149" stroke-width="1"/><text x="965" y="706" font-family="Geist, Inter, Arial, sans-serif" font-size="11" font-weight="600" fill="#9AA7BD" text-anchor="middle">12px</text><rect x="1036" y="624" width="82" height="58" rx="16" fill="#151C2B" stroke="#273149" stroke-width="1"/><text x="1077" y="706" font-family="Geist, Inter, Arial, sans-serif" font-size="11" font-weight="600" fill="#9AA7BD" text-anchor="middle">16px</text><rect x="1148" y="624" width="82" height="58" rx="20" fill="#151C2B" stroke="#273149" stroke-width="1"/><text x="1189" y="706" font-family="Geist, Inter, Arial, sans-serif" font-size="11" font-weight="600" fill="#9AA7BD" text-anchor="middle">20px</text><rect x="1280" y="624" width="210" height="70" rx="16" fill="#151C2B" stroke="#273149" stroke-width="1"/><text x="1385" y="666" font-family="Geist, Inter, Arial, sans-serif" font-size="12" font-weight="650" fill="#F7F9FC" text-anchor="middle">Raised · shadow 02</text><text x="64" y="784" font-family="Geist, Inter, Arial, sans-serif" font-size="12" font-weight="800" fill="#9AA7BD" text-anchor="start">MOTION</text><rect x="64" y="808" width="214" height="92" rx="14" fill="#101522" stroke="#273149" stroke-width="1"/><text x="84" y="842" font-family="Geist, Inter, Arial, sans-serif" font-size="19" font-weight="750" fill="#F7F9FC" text-anchor="start">120 ms</text><text x="84" y="867" font-family="Geist, Inter, Arial, sans-serif" font-size="11" font-weight="600" fill="#9AA7BD" text-anchor="start">feedback</text><rect x="84" y="880" width="48" height="4" rx="2" fill="#4F7CFF"/><rect x="304" y="808" width="214" height="92" rx="14" fill="#101522" stroke="#273149" stroke-width="1"/><text x="324" y="842" font-family="Geist, Inter, Arial, sans-serif" font-size="19" font-weight="750" fill="#F7F9FC" text-anchor="start">180 ms</text><text x="324" y="867" font-family="Geist, Inter, Arial, sans-serif" font-size="11" font-weight="600" fill="#9AA7BD" text-anchor="start">component</text><rect x="324" y="880" width="90" height="4" rx="2" fill="#4F7CFF"/><rect x="544" y="808" width="214" height="92" rx="14" fill="#101522" stroke="#273149" stroke-width="1"/><text x="564" y="842" font-family="Geist, Inter, Arial, sans-serif" font-size="19" font-weight="750" fill="#F7F9FC" text-anchor="start">240 ms</text><text x="564" y="867" font-family="Geist, Inter, Arial, sans-serif" font-size="11" font-weight="600" fill="#9AA7BD" text-anchor="start">drawer</text><rect x="564" y="880" width="132" height="4" rx="2" fill="#4F7CFF"/><rect x="812" y="808" width="724" height="92" rx="14" fill="#101522" stroke="#273149" stroke-width="1"/><text x="836" y="842" font-family="Geist, Inter, Arial, sans-serif" font-size="16" font-weight="750" fill="#F7F9FC" text-anchor="start">Reduced motion</text><text x="836" y="869" font-family="Geist, Inter, Arial, sans-serif" font-size="12" font-weight="500" fill="#9AA7BD" text-anchor="start">Remove non-essential transforms; preserve state change and focus.</text><rect x="1372" y="830" width="126" height="28" rx="14" fill="#22D3EE1F" stroke="#22D3EE55" stroke-width="1"/><text x="1435" y="849" font-family="Geist, Inter, Arial, sans-serif" font-size="11" font-weight="700" fill="#22D3EE" text-anchor="middle">Required</text></svg>