<svg xmlns="http://www.w3.org/2000/svg" width="1600" height="1000" viewBox="0 0 1600 1000" role="img" aria-label="Component primitives">
<defs><linearGradient id="signal" x1="0" y1="0" x2="1" y2="1"><stop stop-color="#22D3EE"/><stop offset="1" stop-color="#4F7CFF"/></linearGradient><filter id="shadow"><feDropShadow dx="0" dy="12" stdDeviation="18" flood-color="#000" flood-opacity=".22"/></filter></defs>
<rect width="1600" height="1000" fill="#070A12"/><circle cx="150" cy="-40" r="280" fill="#22D3EE" opacity=".035"/><circle cx="1550" cy="980" r="340" fill="#4F7CFF" opacity=".045"/><text x="64" y="54" font-family="Geist, Inter, Arial, sans-serif" font-size="12" font-weight="800" fill="#22D3EE" text-anchor="start">FOUNDATION 04</text><text x="64" y="96" font-family="Geist, Inter, Arial, sans-serif" font-size="34" font-weight="800" fill="#F7F9FC" text-anchor="start">Component primitives</text><text x="64" y="126" font-family="Geist, Inter, Arial, sans-serif" font-size="15" font-weight="450" fill="#9AA7BD" text-anchor="start">Consistent controls, evidence-first density, and explicit confirmation boundaries.</text><g transform="translate(1422 46)"><path fill="url(#signal)" d="M24 2 8 7c-2 1-3 2-3 4v13c0 13 6 23 19 29V32l-9-9 9-9V2Zm4 0 16 5c2 1 3 2 3 4v13c0 13-6 23-19 29V32l9-9-9-9V2Z"/><path fill="#22D3EE" d="m26 19 4 4-4 4-4-4 4-4Z"/><text x="55" y="34" font-family="Geist, Inter, Arial, sans-serif" font-size="18" font-weight="800" fill="#F7F9FC" text-anchor="start">TruthBounty</text></g><rect x="64" y="174" width="1472" height="736" rx="18" fill="#101522" stroke="#273149" stroke-width="1"/><text x="92" y="210" font-family="Geist, Inter, Arial, sans-serif" font-size="12" font-weight="800" fill="#9AA7BD" text-anchor="start">ACTIONS</text><rect x="92" y="232" width="142" height="44" rx="10" fill="#4F7CFF" stroke="#4F7CFF" stroke-width="1"/><text x="163" y="260" font-family="Geist, Inter, Arial, sans-serif" font-size="13" font-weight="700" fill="#F7F9FC" text-anchor="middle">Primary action</text><rect x="246" y="232" width="126" height="44" rx="10" fill="#151C2B" stroke="#273149" stroke-width="1"/><text x="309" y="260" font-family="Geist, Inter, Arial, sans-serif" font-size="13" font-weight="700" fill="#F7F9FC" text-anchor="middle">Secondary</text><rect x="384" y="232" width="96" height="44" rx="10" fill="transparent" stroke="#273149" stroke-width="1"/><text x="432" y="260" font-family="Geist, Inter, Arial, sans-serif" font-size="13" font-weight="700" fill="#F7F9FC" text-anchor="middle">Ghost</text><rect x="492" y="232" width="126" height="44" rx="10" fill="#FF6B7A" stroke="#FF6B7A" stroke-width="1"/><text x="555" y="260" font-family="Geist, Inter, Arial, sans-serif" font-size="13" font-weight="700" fill="#F7F9FC" text-anchor="middle">Destructive</text><rect x="630" y="232" width="106" height="44" rx="10" fill="#151C2B" stroke="#273149" stroke-width="1"/><text x="683" y="260" font-family="Geist, Inter, Arial, sans-serif" font-size="13" font-weight="700" fill="#F7F9FC" text-anchor="middle">Disabled</text><rect x="630" y="232" width="106" height="44" rx="10" fill="#070A12" opacity=".62"/><text x="92" y="318" font-family="Geist, Inter, Arial, sans-serif" font-size="12" font-weight="800" fill="#9AA7BD" text-anchor="start">FORM CONTROLS</text><text x="92" y="350" font-family="Geist, Inter, Arial, sans-serif" font-size="11" font-weight="650" fill="#F7F9FC" text-anchor="start">Evidence title</text><rect x="92" y="364" width="318" height="46" rx="10" fill="#070A12" stroke="#273149" stroke-width="1"/><text x="108" y="393" font-family="Geist, Inter, Arial, sans-serif" font-size="11" font-weight="500" fill="#9AA7BD" text-anchor="start">Enter a clear, verifiable claim</text><text x="438" y="350" font-family="Geist, Inter, Arial, sans-serif" font-size="11" font-weight="650" fill="#F7F9FC" text-anchor="start">Source type</text><rect x="438" y="364" width="220" height="46" rx="10" fill="#070A12" stroke="#273149" stroke-width="1"/><text x="454" y="393" font-family="Geist, Inter, Arial, sans-serif" font-size="11" font-weight="550" fill="#F7F9FC" text-anchor="start">Primary source</text><text x="632" y="393" font-family="Geist, Inter, Arial, sans-serif" font-size="14" font-weight="700" fill="#9AA7BD" text-anchor="start">⌄</text><rect x="686" y="348" width="374" height="96" rx="12" fill="#22D3EE08" stroke="#22D3EE66" stroke-width="1"/><text x="873" y="380" font-family="Geist, Inter, Arial, sans-serif" font-size="12" font-weight="700" fill="#22D3EE" text-anchor="middle">Upload evidence</text><text x="873" y="404" font-family="Geist, Inter, Arial, sans-serif" font-size="10" font-weight="500" fill="#9AA7BD" text-anchor="middle">PDF, image or URL · integrity checked</text><text x="92" y="480" font-family="Geist, Inter, Arial, sans-serif" font-size="12" font-weight="800" fill="#9AA7BD" text-anchor="start">CARDS · TABLES</text><rect x="92" y="502" width="312" height="158" rx="14" fill="#070A12" stroke="#273149" stroke-width="1"/><text x="112" y="532" font-family="Geist, Inter, Arial, sans-serif" font-size="11" font-weight="650" fill="#9AA7BD" text-anchor="start">Claim status</text><text x="112" y="564" font-family="Geist, Inter, Arial, sans-serif" font-size="18" font-weight="800" fill="#F7F9FC" text-anchor="start">Evidence review</text><rect x="112" y="586" width="116" height="28" rx="14" fill="#F4B8601F" stroke="#F4B86055" stroke-width="1"/><text x="170" y="605" font-family="Geist, Inter, Arial, sans-serif" font-size="11" font-weight="700" fill="#F4B860" text-anchor="middle">Action needed</text><text x="112" y="636" font-family="Geist, Inter, Arial, sans-serif" font-size="10" font-weight="500" fill="#9AA7BD" text-anchor="start">Fresh 2 min ago</text><rect x="428" y="502" width="632" height="158" rx="14" fill="#070A12" stroke="#273149" stroke-width="1"/><text x="448" y="532" font-family="Geist, Inter, Arial, sans-serif" font-size="9" font-weight="800" fill="#9AA7BD" text-anchor="start">CLAIM</text><text x="760" y="532" font-family="Geist, Inter, Arial, sans-serif" font-size="9" font-weight="800" fill="#9AA7BD" text-anchor="start">PHASE</text><text x="910" y="532" font-family="Geist, Inter, Arial, sans-serif" font-size="9" font-weight="800" fill="#9AA7BD" text-anchor="start">DEADLINE</text><line x1="448" y1="548" x2="1040" y2="548" stroke="#273149" stroke-width="1" /><text x="448" y="579" font-family="Geist, Inter, Arial, sans-serif" font-size="11" font-weight="650" fill="#F7F9FC" text-anchor="start">Municipal air-quality report</text><rect x="752" y="559" width="104" height="28" rx="14" fill="#74A7FF1F" stroke="#74A7FF55" stroke-width="1"/><text x="804" y="578" font-family="Geist, Inter, Arial, sans-serif" font-size="11" font-weight="700" fill="#74A7FF" text-anchor="middle">Verification</text><text x="910" y="579" font-family="Geist, Inter, Arial, sans-serif" font-size="11" font-weight="700" fill="#F4B860" text-anchor="start">18 h</text><line x1="448" y1="596" x2="1040" y2="596" stroke="#273149" stroke-width="1" /><text x="448" y="628" font-family="Geist, Inter, Arial, sans-serif" font-size="11" font-weight="650" fill="#F7F9FC" text-anchor="start">Public procurement claim</text><rect x="752" y="608" width="88" height="28" rx="14" fill="#41D39A1F" stroke="#41D39A55" stroke-width="1"/><text x="796" y="627" font-family="Geist, Inter, Arial, sans-serif" font-size="11" font-weight="700" fill="#41D39A" text-anchor="middle">Finalized</text><text x="910" y="628" font-family="Geist, Inter, Arial, sans-serif" font-size="11" font-weight="600" fill="#9AA7BD" text-anchor="start">—</text><text x="1092" y="210" font-family="Geist, Inter, Arial, sans-serif" font-size="12" font-weight="800" fill="#9AA7BD" text-anchor="start">FILTERS · TABS · BADGES</text><rect x="1092" y="232" width="92" height="28" rx="14" fill="#4F7CFF1F" stroke="#4F7CFF55" stroke-width="1"/><text x="1138" y="251" font-family="Geist, Inter, Arial, sans-serif" font-size="11" font-weight="700" fill="#4F7CFF" text-anchor="middle">All claims</text><rect x="1194" y="232" width="76" height="28" rx="14" fill="#9AA7BD1F" stroke="#9AA7BD55" stroke-width="1"/><text x="1232" y="251" font-family="Geist, Inter, Arial, sans-serif" font-size="11" font-weight="700" fill="#9AA7BD" text-anchor="middle">Active</text><rect x="1280" y="232" width="88" height="28" rx="14" fill="#41D39A1F" stroke="#41D39A55" stroke-width="1"/><text x="1324" y="251" font-family="Geist, Inter, Arial, sans-serif" font-size="11" font-weight="700" fill="#41D39A" text-anchor="middle">Finalized</text><rect x="1092" y="286" width="416" height="46" rx="10" fill="#070A12" stroke="#273149" stroke-width="1"/><text x="1110" y="315" font-family="Geist, Inter, Arial, sans-serif" font-size="11" font-weight="500" fill="#9AA7BD" text-anchor="start">Search claims or evidence…</text><rect x="1092" y="350" width="98" height="28" rx="14" fill="#74A7FF1F" stroke="#74A7FF55" stroke-width="1"/><text x="1141" y="369" font-family="Geist, Inter, Arial, sans-serif" font-size="11" font-weight="700" fill="#74A7FF" text-anchor="middle">Submitted</text><rect x="1200" y="350" width="82" height="28" rx="14" fill="#F4B8601F" stroke="#F4B86055" stroke-width="1"/><text x="1241" y="369" font-family="Geist, Inter, Arial, sans-serif" font-size="11" font-weight="700" fill="#F4B860" text-anchor="middle">Pending</text><rect x="1292" y="350" width="92" height="28" rx="14" fill="#41D39A1F" stroke="#41D39A55" stroke-width="1"/><text x="1338" y="369" font-family="Geist, Inter, Arial, sans-serif" font-size="11" font-weight="700" fill="#41D39A" text-anchor="middle">Finalized</text><rect x="1394" y="350" width="76" height="28" rx="14" fill="#FF6B7A1F" stroke="#FF6B7A55" stroke-width="1"/><text x="1432" y="369" font-family="Geist, Inter, Arial, sans-serif" font-size="11" font-weight="700" fill="#FF6B7A" text-anchor="middle">Failed</text><text x="1092" y="480" font-family="Geist, Inter, Arial, sans-serif" font-size="12" font-weight="800" fill="#9AA7BD" text-anchor="start">CONFIRMATION DIALOG</text><rect x="1092" y="502" width="416" height="326" rx="18" fill="#151C2B" stroke="#273149" stroke-width="1"/><text x="1118" y="540" font-family="Geist, Inter, Arial, sans-serif" font-size="16" font-weight="800" fill="#F7F9FC" text-anchor="start">Review before authorization</text><text x="1118" y="568" font-family="Geist, Inter, Arial, sans-serif" font-size="11" font-weight="500" fill="#9AA7BD" text-anchor="start">Exact action, chain, contract and risk.</text><rect x="1118" y="592" width="364" height="106" rx="12" fill="#070A12" stroke="#273149" stroke-width="1"/><text x="1136" y="622" font-family="Geist, Inter, Arial, sans-serif" font-size="10" font-weight="650" fill="#9AA7BD" text-anchor="start">Network</text><text x="1458" y="622" font-family="Geist, Inter, Arial, sans-serif" font-size="10" font-weight="650" fill="#F7F9FC" text-anchor="end">Optimism Sepolia</text><text x="1136" y="650" font-family="Geist, Inter, Arial, sans-serif" font-size="10" font-weight="650" fill="#9AA7BD" text-anchor="start">Contract</text><text x="1458" y="650" font-family="Geist Mono, monospace" font-size="10" font-weight="650" fill="#F7F9FC" text-anchor="end">0x42…91a</text><text x="1136" y="678" font-family="Geist, Inter, Arial, sans-serif" font-size="10" font-weight="650" fill="#9AA7BD" text-anchor="start">Estimated fee</text><text x="1458" y="678" font-family="Geist, Inter, Arial, sans-serif" font-size="10" font-weight="650" fill="#F7F9FC" text-anchor="end">0.00014 ETH</text><rect x="1118" y="718" width="364" height="48" rx="10" fill="#F4B86010" stroke="#F4B86055" stroke-width="1"/><text x="1136" y="747" font-family="Geist, Inter, Arial, sans-serif" font-size="10" font-weight="650" fill="#F4B860" text-anchor="start">Authorization does not imply finality.</text><rect x="1118" y="782" width="100" height="44" rx="10" fill="#151C2B" stroke="#273149" stroke-width="1"/><text x="1168" y="810" font-family="Geist, Inter, Arial, sans-serif" font-size="13" font-weight="700" fill="#F7F9FC" text-anchor="middle">Cancel</text><rect x="1312" y="782" width="170" height="44" rx="10" fill="#4F7CFF" stroke="#4F7CFF" stroke-width="1"/><text x="1397" y="810" font-family="Geist, Inter, Arial, sans-serif" font-size="13" font-weight="700" fill="#F7F9FC" text-anchor="middle">Authorize</text></svg>